<?xml version="1.0" encoding="utf-8"?>
<!-- Generator: Adobe Illustrator 23.0.6, SVG Export Plug-In . SVG Version: 6.00 Build 0)  -->
<svg version="1.1" id="Capa_1" xmlns="http://www.w3.org/2000/svg" xmlns:xlink="http://www.w3.org/1999/xlink" x="0px" y="0px"
	 viewBox="0 0 255.118 255.118" style="enable-background:new 0 0 255.118 255.118;" xml:space="preserve">
<style type="text/css">
	.st0{fill:#5A5369;}
	.st1{fill-rule:evenodd;clip-rule:evenodd;fill:#FFFFFF;}
</style>
<circle class="st0" cx="127.559" cy="127.559" r="121.576"/>
<path class="st1" d="M120.775,171.718c2.189,0.335,4.432,0.509,6.715,0.509c24.311,0,44.018-19.708,44.018-44.018
	c0-24.311-19.708-44.018-44.018-44.018c-1.631,0-3.242,0.089-4.826,0.262c12.059,9.136,20.033,24.963,20.033,42.956
	C142.696,146.326,133.884,162.847,120.775,171.718z M127.559,182.416c30.297,0,54.857-24.56,54.857-54.857
	s-24.56-54.857-54.857-54.857s-54.857,24.56-54.857,54.857S97.262,182.416,127.559,182.416z"/>
</svg>
